<svg width="22" height="22" viewBox="0 0 22 22" fill="none" xmlns="http://www.w3.org/2000/svg">
<g id="Icon">
<path id="Vector" d="M3.59259 16.1666H17.9627C18.4567 16.1666 18.8608 15.7625 18.8608 15.2685C18.8608 14.7745 18.4567 14.3704 17.9627 14.3704H3.59259C3.09862 14.3704 2.69446 14.7745 2.69446 15.2685C2.69446 15.7625 3.09862 16.1666 3.59259 16.1666ZM3.59259 11.676H17.9627C18.4567 11.676 18.8608 11.2718 18.8608 10.7779C18.8608 10.2839 18.4567 9.87972 17.9627 9.87972H3.59259C3.09862 9.87972 2.69446 10.2839 2.69446 10.7779C2.69446 11.2718 3.09862 11.676 3.59259 11.676ZM2.69446 6.2872C2.69446 6.78117 3.09862 7.18533 3.59259 7.18533H17.9627C18.4567 7.18533 18.8608 6.78117 18.8608 6.2872C18.8608 5.79323 18.4567 5.38907 17.9627 5.38907H3.59259C3.09862 5.38907 2.69446 5.79323 2.69446 6.2872Z" fill="#F8F7F9"/>
</g>
</svg>
