<svg xmlns="http://www.w3.org/2000/svg" width="43" height="42" viewBox="0 0 43 42" fill="none">
  <g clip-path="url(#clip0_150_87)">
    <path d="M21.8 3.78164C27.4109 3.78164 28.0754 3.80625 30.282 3.90469C32.3328 3.99492 33.4402 4.33945 34.1785 4.62656C35.1547 5.00391 35.8602 5.46328 36.5902 6.19336C37.3285 6.93164 37.7797 7.62891 38.157 8.60508C38.4441 9.34336 38.7887 10.459 38.8789 12.5016C38.9774 14.7164 39.002 15.3809 39.002 20.9836C39.002 26.5945 38.9774 27.259 38.8789 29.4656C38.7887 31.5164 38.4441 32.6238 38.157 33.3621C37.7797 34.3383 37.3203 35.0438 36.5902 35.7738C35.852 36.5121 35.1547 36.9633 34.1785 37.3406C33.4402 37.6277 32.3246 37.9723 30.282 38.0625C28.0672 38.1609 27.4027 38.1855 21.8 38.1855C16.1891 38.1855 15.5246 38.1609 13.318 38.0625C11.2672 37.9723 10.1598 37.6277 9.42149 37.3406C8.44532 36.9633 7.73985 36.5039 7.00977 35.7738C6.27149 35.0356 5.82032 34.3383 5.44297 33.3621C5.15586 32.6238 4.81133 31.5082 4.7211 29.4656C4.62266 27.2508 4.59805 26.5863 4.59805 20.9836C4.59805 15.3727 4.62266 14.7082 4.7211 12.5016C4.81133 10.4508 5.15586 9.34336 5.44297 8.60508C5.82032 7.62891 6.27969 6.92344 7.00977 6.19336C7.74805 5.45508 8.44532 5.00391 9.42149 4.62656C10.1598 4.33945 11.2754 3.99492 13.318 3.90469C15.5246 3.80625 16.1891 3.78164 21.8 3.78164ZM21.8 0C16.0988 0 15.3852 0.0246094 13.1457 0.123047C10.9145 0.221484 9.38047 0.582422 8.05157 1.09922C6.66524 1.64063 5.49219 2.3543 4.32735 3.52734C3.1543 4.69219 2.44063 5.86524 1.89922 7.24336C1.38242 8.58047 1.02149 10.1063 0.92305 12.3375C0.824612 14.5852 0.800003 15.2988 0.800003 21C0.800003 26.7012 0.824612 27.4148 0.92305 29.6543C1.02149 31.8855 1.38242 33.4195 1.89922 34.7484C2.44063 36.1348 3.1543 37.3078 4.32735 38.4727C5.49219 39.6375 6.66524 40.3594 8.04336 40.8926C9.38047 41.4094 10.9063 41.7703 13.1375 41.8688C15.377 41.9672 16.0906 41.9918 21.7918 41.9918C27.493 41.9918 28.2066 41.9672 30.4461 41.8688C32.6774 41.7703 34.2113 41.4094 35.5402 40.8926C36.9184 40.3594 38.0914 39.6375 39.2563 38.4727C40.4211 37.3078 41.143 36.1348 41.6762 34.7566C42.193 33.4195 42.5539 31.8938 42.6524 29.6625C42.7508 27.4231 42.7754 26.7094 42.7754 21.0082C42.7754 15.307 42.7508 14.5934 42.6524 12.3539C42.5539 10.1227 42.193 8.58867 41.6762 7.25977C41.1594 5.86523 40.4457 4.69219 39.2727 3.52734C38.1078 2.3625 36.9348 1.64063 35.5566 1.10742C34.2195 0.590625 32.6938 0.229688 30.4625 0.13125C28.2148 0.0246094 27.5012 0 21.8 0Z" fill="white"/>
    <path d="M21.8 10.2129C15.8445 10.2129 11.0129 15.0445 11.0129 21C11.0129 26.9555 15.8445 31.7871 21.8 31.7871C27.7555 31.7871 32.5871 26.9555 32.5871 21C32.5871 15.0445 27.7555 10.2129 21.8 10.2129ZM21.8 27.9973C17.9363 27.9973 14.8027 24.8637 14.8027 21C14.8027 17.1363 17.9363 14.0027 21.8 14.0027C25.6637 14.0027 28.7973 17.1363 28.7973 21C28.7973 24.8637 25.6637 27.9973 21.8 27.9973Z" fill="white"/>
    <path d="M35.532 9.78643C35.532 11.181 34.4 12.3048 33.0137 12.3048C31.6191 12.3048 30.4953 11.1728 30.4953 9.78643C30.4953 8.3919 31.6273 7.26807 33.0137 7.26807C34.4 7.26807 35.532 8.4001 35.532 9.78643Z" fill="white"/>
  </g>
  <defs>
    <clipPath id="clip0_150_87">
      <rect width="42" height="42" fill="white" transform="translate(0.800003)"/>
    </clipPath>
  </defs>
</svg>