<svg xmlns="http://www.w3.org/2000/svg" width="43" height="42" viewBox="0 0 43 42" fill="none">
  <g clip-path="url(#clip0_150_84)">
    <path d="M39.091 0H3.30079C1.58634 0 0.200012 1.35352 0.200012 3.02695V38.9648C0.200012 40.6383 1.58634 42 3.30079 42H39.091C40.8055 42 42.2 40.6383 42.2 38.973V3.02695C42.2 1.35352 40.8055 0 39.091 0ZM12.6606 35.7902H6.42618V15.7418H12.6606V35.7902ZM9.54337 13.0102C7.54181 13.0102 5.92579 11.3941 5.92579 9.40078C5.92579 7.40742 7.54181 5.79141 9.54337 5.79141C11.5367 5.79141 13.1527 7.40742 13.1527 9.40078C13.1527 11.3859 11.5367 13.0102 9.54337 13.0102ZM35.9902 35.7902H29.7641V26.0449C29.7641 23.7234 29.7231 20.7293 26.5238 20.7293C23.2836 20.7293 22.7914 23.2641 22.7914 25.8809V35.7902H16.5735V15.7418H22.5453V18.4816H22.6274C23.4559 16.9066 25.4902 15.2414 28.5172 15.2414C34.8254 15.2414 35.9902 19.3922 35.9902 24.7898V35.7902V35.7902Z" fill="white"/>
  </g>
  <defs>
    <clipPath id="clip0_150_84">
      <rect width="42" height="42" fill="white" transform="translate(0.200012)"/>
    </clipPath>
  </defs>
</svg>