<svg xmlns="http://www.w3.org/2000/svg" width="43" height="42" viewBox="0 0 43 42" fill="none">
  <g clip-path="url(#clip0_150_92)">
    <path d="M13.6128 38.0628C29.4579 38.0628 38.127 24.932 38.127 13.5486C38.127 13.1794 38.1188 12.8021 38.1024 12.4329C39.7888 11.2134 41.2441 9.70275 42.4 7.97208C40.8294 8.67086 39.1619 9.12722 37.4543 9.32559C39.2522 8.24789 40.5984 6.55488 41.2434 4.5604C39.552 5.56278 37.7023 6.26988 35.7735 6.65137C34.474 5.27054 32.7557 4.35626 30.8844 4.04989C29.0132 3.74353 27.0931 4.06214 25.421 4.95647C23.749 5.8508 22.4181 7.27104 21.6342 8.9976C20.8503 10.7242 20.657 12.6609 21.0842 14.5083C17.6594 14.3365 14.3089 13.4468 11.25 11.897C8.19104 10.3472 5.49196 8.17182 3.32769 5.51196C2.22769 7.40848 1.89109 9.65268 2.3863 11.7885C2.8815 13.9242 4.17135 15.7913 5.99371 17.0103C4.62559 16.9668 3.28745 16.5985 2.08984 15.9357V16.0423C2.08861 18.0326 2.77667 19.9618 4.03704 21.5022C5.29741 23.0425 7.05231 24.0988 9.00343 24.4915C7.73609 24.8383 6.40596 24.8888 5.11597 24.6392C5.66654 26.3508 6.73775 27.8479 8.18009 28.9214C9.62244 29.9949 11.364 30.5913 13.1616 30.6275C10.1097 33.0247 6.3398 34.325 2.45898 34.3189C1.77075 34.3178 1.08319 34.2756 0.399994 34.1925C4.34249 36.7219 8.92867 38.0652 13.6128 38.0628Z" fill="white"/>
  </g>
  <defs>
    <clipPath id="clip0_150_92">
      <rect width="42" height="42" fill="white" transform="translate(0.399994)"/>
    </clipPath>
  </defs>
</svg>